<svg xmlns="http://www.w3.org/2000/svg" width="337" height="96">
  <style>
    .shp0{fill:#000}
  </style>
  <path d="M120.9 87.25H118c-2.86 0-4.4-1.54-4.4-4.4v-68.2c0-2.86 1.54-4.4 4.4-4.4h4.62c.56-.04 1.12.01 1.66.16.54.16 1.05.4 1.51.73a4.769 4.769 0 011.83 2.74l15 44V14.65c0-2.86 1.54-4.4 4.4-4.4h2.86c2.86 0 4.4 1.54 4.4 4.4v68.2c0 2.86-1.54 4.4-4.4 4.4h-4c-.56.04-1.12-.01-1.66-.16-.54-.16-1.05-.4-1.51-.73a4.769 4.769 0 01-1.83-2.74L125.3 37.2v45.65c0 2.86-1.54 4.4-4.4 4.4z" class="shp0"/>
  <path fill-rule="evenodd" d="M206.15 87.25h-4.07c-.58.05-1.16-.01-1.72-.19-.55-.18-1.06-.47-1.51-.85-.44-.37-.8-.84-1.06-1.36-.25-.52-.4-1.09-.44-1.67l-2.09-13.09h-14.08l-2.09 13.09c-.04.58-.19 1.15-.44 1.67-.26.52-.62.99-1.06 1.36-.45.38-.96.67-1.51.85-.56.18-1.14.24-1.72.19H171c-3 0-4.51-1.65-4-4.73l12.65-68.31c.44-2.64 2.2-4 4.84-4h7.92c2.64 0 4.4 1.32 4.84 4l12.87 68.31c.54 3.08-1 4.73-3.97 4.73zm-12.54-27.72l-5.39-34.21-5.39 34.21h10.78z" class="shp0"/>
  <path d="M256.64 15l-12.87 68.31c-.44 2.64-2.2 4-4.84 4H233c-2.64 0-4.4-1.32-4.84-4L215.28 15c-.55-3.08 1-4.73 4-4.73h4.07c.58-.05 1.16.01 1.72.19.55.18 1.06.47 1.51.85.44.37.8.84 1.06 1.36.25.52.4 1.09.44 1.67l8.25 53 8.25-53c.04-.58.19-1.15.44-1.67.26-.52.62-.99 1.06-1.36.45-.38.96-.67 1.51-.85.56-.18 1.14-.24 1.72-.19h3.41c2.93-.02 4.47 1.63 3.92 4.73zM278.2 87.25h-4c-2.86 0-4.4-1.54-4.4-4.4v-68.2c0-2.86 1.54-4.4 4.4-4.4h4c2.86 0 4.4 1.54 4.4 4.4v68.2c0 2.86-1.54 4.4-4.4 4.4zM331.66 37.75h-3.74c-2.86 0-4.4-1.54-4.4-4.4V27c0-4.84-2.75-6.6-6.49-6.6s-6.49 1.76-6.49 6.6v5.28c0 4 1.32 5.72 5 7.81l9 5.06c7.37 4.18 11.77 7.59 11.77 15.84V72.1c0 11.88-7.37 16.06-19 16.06H317c-11.66 0-19-4.07-19-16.06v-9c0-2.86 1.54-4.4 4.4-4.4h3.74c2.86 0 4.4 1.54 4.4 4.4v7.26c0 4.73 2.75 6.82 6.6 6.82 3.85 0 6.6-2.09 6.6-6.82v-6.05c0-4-1.21-5.94-5.06-8l-8.91-5.06C302.29 46.96 298 43.44 298 35.41v-10.2c0-11.44 8.36-15.84 18.92-15.84h.22c10.56 0 18.92 4.4 18.92 15.84v8.14c0 2.86-1.54 4.4-4.4 4.4z" class="shp0"/>
  <path fill-rule="evenodd" d="M20.72 95.25c-.26 0-.52-.03-.78-.09a3.7 3.7 0 01-.73-.25c-.24-.12-.46-.26-.67-.42-.2-.16-.39-.35-.55-.55l-16.5-20.5a3.57 3.57 0 01-.75-1.79c-.07-.66.04-1.32.32-1.91.29-.6.74-1.1 1.3-1.45.55-.35 1.2-.54 1.86-.54l73.5.5c.67 0 1.33.2 1.9.57a3.51 3.51 0 011.53 3.48c-.1.67-.4 1.29-.85 1.79l-18 20c-.16.18-.34.34-.54.49-.2.14-.41.26-.63.36a3.453 3.453 0 01-1.41.31h-39zm1.67-7h35.77L69.91 75.2l-58.34-.4 10.82 13.45zM56.5 60.75h-35a3.506 3.506 0 01-3.08-1.84c-.3-.56-.45-1.19-.42-1.82.03-.63.23-1.24.58-1.77l35-53c.41-.63 1.02-1.11 1.73-1.36.71-.26 1.48-.28 2.2-.06.72.21 1.35.66 1.8 1.26.45.61.69 1.34.69 2.09v53c0 .46-.09.91-.27 1.34-.17.42-.43.81-.76 1.13-.32.33-.71.59-1.13.76-.43.18-.88.27-1.34.27zm-28.49-7h25V15.9l-25 37.85z" class="shp0"/>
</svg>
